# xmcd
#
# Track frame offsets:
#	150
#	18765
#	39737
#	54827
#	88933
#	106854
#	117767
#	144489
#	164983
#	186356
#	201254
#	226185
#	247576
#	266181
#	287364
#	304937
#
# Disc length: 4379 seconds
#
# Revision: 1
# Processed by: cddbd v1.5PL3 Copyright (c) Steve Scherf et al.
# Submitted via: EasyCDDAExtractor 7.0.5.1
#
DISCID=da111910
DTITLE=Calvin Russell - This Is My Life
DYEAR=1998
DGENRE=Blues
TTITLE0=This Is My Life
TTITLE1=Crack In Time
TTITLE2=Big Brother
TTITLE3=Crossroads
TTITLE4=One Meatball
TTITLE5=Baby I Love You
TTITLE6=Soldier
TTITLE7=Rat And Roaches
TTITLE8=This Is Your World
TTITLE9=Don't Turn Your Head
TTITLE10=Trouble
TTITLE11=Valley Far Below
TTITLE12=Texas Song
TTITLE13=Let The Music Play
TTITLE14=It's All Over Now
TTITLE15=Forever Young
EXTD=
EXTT0=
EXTT1=
EXTT2=
EXTT3=
EXTT4=
EXTT5=
EXTT6=
EXTT7=
EXTT8=
EXTT9=
EXTT10=
EXTT11=
EXTT12=
EXTT13=
EXTT14=
EXTT15=
PLAYORDER=
